<mxfile host="65bd71144e">
    <diagram name="Επιλογή Μέσου Μετακίνησης" id="LMLPMtf7ALw_Q4-HfFrC">
        <mxGraphModel dx="836" dy="1883" grid="1" gridSize="10" guides="1" tooltips="1" connect="1" arrows="1" fold="1" page="1" pageScale="1" pageWidth="827" pageHeight="1169" math="0" shadow="0">
            <root>
                <mxCell id="0"/>
                <mxCell id="1" parent="0"/>
                <mxCell id="Tk8j7c15YgIE_sbvmRS2-9" style="rounded=0;orthogonalLoop=1;jettySize=auto;html=1;exitX=1;exitY=0.3333333333333333;exitDx=0;exitDy=0;exitPerimeter=0;entryX=-0.039;entryY=0.549;entryDx=0;entryDy=0;entryPerimeter=0;" parent="1" source="Tk8j7c15YgIE_sbvmRS2-1" target="Tk8j7c15YgIE_sbvmRS2-7" edge="1">
                    <mxGeometry relative="1" as="geometry"/>
                </mxCell>
                <mxCell id="Tk8j7c15YgIE_sbvmRS2-10" value="Επιλογή &quot;Εντός&lt;div&gt;Πόλης&quot;&lt;br&gt;&lt;/div&gt;" style="edgeLabel;html=1;align=center;verticalAlign=middle;resizable=0;points=[];" parent="Tk8j7c15YgIE_sbvmRS2-9" vertex="1" connectable="0">
                    <mxGeometry x="-0.3998" relative="1" as="geometry">
                        <mxPoint x="32" y="-31" as="offset"/>
                    </mxGeometry>
                </mxCell>
                <mxCell id="5Ba9WoWl8ZpEdoUwCl-l-32" style="edgeStyle=none;rounded=0;orthogonalLoop=1;jettySize=auto;html=1;exitX=1;exitY=0.3333333333333333;exitDx=0;exitDy=0;exitPerimeter=0;" parent="1" source="Tk8j7c15YgIE_sbvmRS2-1" target="5Ba9WoWl8ZpEdoUwCl-l-30" edge="1">
                    <mxGeometry relative="1" as="geometry"/>
                </mxCell>
                <mxCell id="Tk8j7c15YgIE_sbvmRS2-1" value="Actor" style="shape=umlActor;verticalLabelPosition=bottom;verticalAlign=top;html=1;" parent="1" vertex="1">
                    <mxGeometry x="170" y="200" width="30" height="60" as="geometry"/>
                </mxCell>
                <mxCell id="5Ba9WoWl8ZpEdoUwCl-l-9" value="" style="rounded=0;orthogonalLoop=1;jettySize=auto;html=1;" parent="1" source="Tk8j7c15YgIE_sbvmRS2-7" target="5Ba9WoWl8ZpEdoUwCl-l-8" edge="1">
                    <mxGeometry relative="1" as="geometry"/>
                </mxCell>
                <mxCell id="Tk8j7c15YgIE_sbvmRS2-7" value="Αρχική Οθόνη" style="shape=umlBoundary;whiteSpace=wrap;html=1;" parent="1" vertex="1">
                    <mxGeometry x="300" y="80" width="90" height="70" as="geometry"/>
                </mxCell>
                <mxCell id="Tk8j7c15YgIE_sbvmRS2-11" value="Απενεργοπ. επιλογής οχήματος" style="ellipse;shape=umlControl;whiteSpace=wrap;html=1;fillColor=default;strokeColor=#b85450;strokeWidth=2;" parent="1" vertex="1">
                    <mxGeometry x="827" y="-130" width="80" height="90" as="geometry"/>
                </mxCell>
                <mxCell id="5Ba9WoWl8ZpEdoUwCl-l-12" value="" style="edgeStyle=none;rounded=0;orthogonalLoop=1;jettySize=auto;html=1;fillColor=#f8cecc;strokeColor=#b85450;strokeWidth=2;" parent="1" source="5Ba9WoWl8ZpEdoUwCl-l-8" target="5Ba9WoWl8ZpEdoUwCl-l-10" edge="1">
                    <mxGeometry relative="1" as="geometry"/>
                </mxCell>
                <mxCell id="5Ba9WoWl8ZpEdoUwCl-l-46" value="Ναι" style="edgeLabel;html=1;align=center;verticalAlign=middle;resizable=0;points=[];" parent="5Ba9WoWl8ZpEdoUwCl-l-12" vertex="1" connectable="0">
                    <mxGeometry x="-0.1753" y="-3" relative="1" as="geometry">
                        <mxPoint as="offset"/>
                    </mxGeometry>
                </mxCell>
                <mxCell id="3" value="" style="edgeStyle=none;html=1;" parent="1" source="5Ba9WoWl8ZpEdoUwCl-l-8" target="2" edge="1">
                    <mxGeometry relative="1" as="geometry"/>
                </mxCell>
                <mxCell id="5Ba9WoWl8ZpEdoUwCl-l-8" value="Έχει ο πελάτης χρέος;" style="ellipse;shape=umlControl;whiteSpace=wrap;html=1;" parent="1" vertex="1">
                    <mxGeometry x="440" y="75" width="70" height="80" as="geometry"/>
                </mxCell>
                <mxCell id="5" style="edgeStyle=none;html=1;entryX=-0.001;entryY=0.522;entryDx=0;entryDy=0;entryPerimeter=0;" edge="1" parent="1" source="5Ba9WoWl8ZpEdoUwCl-l-10" target="4">
                    <mxGeometry relative="1" as="geometry"/>
                </mxCell>
                <mxCell id="5Ba9WoWl8ZpEdoUwCl-l-10" value="Εμφάνισε" style="ellipse;shape=umlControl;whiteSpace=wrap;html=1;fillColor=default;strokeColor=#b85450;strokeWidth=2;" parent="1" vertex="1">
                    <mxGeometry x="560" y="-70" width="70" height="80" as="geometry"/>
                </mxCell>
                <mxCell id="5Ba9WoWl8ZpEdoUwCl-l-13" value="Εμφάνισε" style="ellipse;shape=umlControl;whiteSpace=wrap;html=1;" parent="1" vertex="1">
                    <mxGeometry x="510" y="178" width="70" height="80" as="geometry"/>
                </mxCell>
                <mxCell id="5Ba9WoWl8ZpEdoUwCl-l-14" value="Όχι" style="edgeStyle=none;rounded=0;orthogonalLoop=1;jettySize=auto;html=1;entryX=0.509;entryY=0.105;entryDx=0;entryDy=0;entryPerimeter=0;" parent="1" source="5Ba9WoWl8ZpEdoUwCl-l-8" target="5Ba9WoWl8ZpEdoUwCl-l-13" edge="1">
                    <mxGeometry relative="1" as="geometry"/>
                </mxCell>
                <mxCell id="5Ba9WoWl8ZpEdoUwCl-l-15" value="Οθόνη &quot;Εντός Πόλης&quot;" style="shape=umlBoundary;whiteSpace=wrap;html=1;" parent="1" vertex="1">
                    <mxGeometry x="360" y="180" width="90" height="70" as="geometry"/>
                </mxCell>
                <mxCell id="5Ba9WoWl8ZpEdoUwCl-l-16" style="edgeStyle=none;rounded=0;orthogonalLoop=1;jettySize=auto;html=1;exitX=1;exitY=0.3333333333333333;exitDx=0;exitDy=0;exitPerimeter=0;entryX=-0.013;entryY=0.523;entryDx=0;entryDy=0;entryPerimeter=0;" parent="1" source="Tk8j7c15YgIE_sbvmRS2-1" target="5Ba9WoWl8ZpEdoUwCl-l-15" edge="1">
                    <mxGeometry relative="1" as="geometry"/>
                </mxCell>
                <mxCell id="5Ba9WoWl8ZpEdoUwCl-l-18" value="Επιλογή Οχήματος" style="edgeLabel;html=1;align=center;verticalAlign=middle;resizable=0;points=[];" parent="5Ba9WoWl8ZpEdoUwCl-l-16" vertex="1" connectable="0">
                    <mxGeometry x="0.1198" y="2" relative="1" as="geometry">
                        <mxPoint as="offset"/>
                    </mxGeometry>
                </mxCell>
                <mxCell id="5Ba9WoWl8ZpEdoUwCl-l-17" style="edgeStyle=none;rounded=0;orthogonalLoop=1;jettySize=auto;html=1;entryX=1.004;entryY=0.531;entryDx=0;entryDy=0;entryPerimeter=0;" parent="1" source="5Ba9WoWl8ZpEdoUwCl-l-13" target="5Ba9WoWl8ZpEdoUwCl-l-15" edge="1">
                    <mxGeometry relative="1" as="geometry"/>
                </mxCell>
                <mxCell id="5Ba9WoWl8ZpEdoUwCl-l-29" value="" style="edgeStyle=none;rounded=0;orthogonalLoop=1;jettySize=auto;html=1;" parent="1" source="5Ba9WoWl8ZpEdoUwCl-l-20" target="5Ba9WoWl8ZpEdoUwCl-l-26" edge="1">
                    <mxGeometry relative="1" as="geometry"/>
                </mxCell>
                <mxCell id="5Ba9WoWl8ZpEdoUwCl-l-20" value="Εύρεση Τοποθεσίας" style="ellipse;whiteSpace=wrap;html=1;" parent="1" vertex="1">
                    <mxGeometry x="922.75" y="691.4" width="120" height="60" as="geometry"/>
                </mxCell>
                <mxCell id="5Ba9WoWl8ZpEdoUwCl-l-24" value="" style="edgeStyle=none;rounded=0;orthogonalLoop=1;jettySize=auto;html=1;" parent="1" source="5Ba9WoWl8ZpEdoUwCl-l-21" target="5Ba9WoWl8ZpEdoUwCl-l-23" edge="1">
                    <mxGeometry relative="1" as="geometry"/>
                </mxCell>
                <mxCell id="5Ba9WoWl8ZpEdoUwCl-l-21" value="Εμφάνισε" style="ellipse;shape=umlControl;whiteSpace=wrap;html=1;" parent="1" vertex="1">
                    <mxGeometry x="600" y="400" width="70" height="80" as="geometry"/>
                </mxCell>
                <mxCell id="5Ba9WoWl8ZpEdoUwCl-l-25" value="" style="edgeStyle=none;rounded=0;orthogonalLoop=1;jettySize=auto;html=1;" parent="1" source="5Ba9WoWl8ZpEdoUwCl-l-23" target="5Ba9WoWl8ZpEdoUwCl-l-20" edge="1">
                    <mxGeometry relative="1" as="geometry"/>
                </mxCell>
                <mxCell id="5Ba9WoWl8ZpEdoUwCl-l-23" value="Σελίδα Επιλεγμένου Μέσου" style="shape=umlBoundary;whiteSpace=wrap;html=1;" parent="1" vertex="1">
                    <mxGeometry x="720" y="405" width="90" height="70" as="geometry"/>
                </mxCell>
                <mxCell id="5Ba9WoWl8ZpEdoUwCl-l-28" value="" style="edgeStyle=none;rounded=0;orthogonalLoop=1;jettySize=auto;html=1;" parent="1" source="5Ba9WoWl8ZpEdoUwCl-l-26" target="5Ba9WoWl8ZpEdoUwCl-l-27" edge="1">
                    <mxGeometry relative="1" as="geometry"/>
                </mxCell>
                <mxCell id="5Ba9WoWl8ZpEdoUwCl-l-31" value="" style="edgeStyle=none;rounded=0;orthogonalLoop=1;jettySize=auto;html=1;" parent="1" target="5Ba9WoWl8ZpEdoUwCl-l-30" edge="1">
                    <mxGeometry relative="1" as="geometry">
                        <mxPoint x="778" y="817" as="sourcePoint"/>
                    </mxGeometry>
                </mxCell>
                <mxCell id="5Ba9WoWl8ZpEdoUwCl-l-26" value="Εμφάνισε" style="ellipse;shape=umlControl;whiteSpace=wrap;html=1;" parent="1" vertex="1">
                    <mxGeometry x="779.75" y="771.4" width="70" height="80" as="geometry"/>
                </mxCell>
                <mxCell id="5Ba9WoWl8ZpEdoUwCl-l-27" value="Βάση Δεδομένων" style="ellipse;shape=umlEntity;whiteSpace=wrap;html=1;" parent="1" vertex="1">
                    <mxGeometry x="902.75" y="776.4" width="70" height="70" as="geometry"/>
                </mxCell>
                <mxCell id="5Ba9WoWl8ZpEdoUwCl-l-34" value="" style="edgeStyle=none;rounded=0;orthogonalLoop=1;jettySize=auto;html=1;" parent="1" source="5Ba9WoWl8ZpEdoUwCl-l-30" target="5Ba9WoWl8ZpEdoUwCl-l-33" edge="1">
                    <mxGeometry relative="1" as="geometry"/>
                </mxCell>
                <mxCell id="5Ba9WoWl8ZpEdoUwCl-l-30" value="Επιλογή Μέσου" style="shape=umlBoundary;whiteSpace=wrap;html=1;" parent="1" vertex="1">
                    <mxGeometry x="519.8" y="803.61" width="90" height="70" as="geometry"/>
                </mxCell>
                <mxCell id="5Ba9WoWl8ZpEdoUwCl-l-36" value="" style="edgeStyle=none;rounded=0;orthogonalLoop=1;jettySize=auto;html=1;" parent="1" source="5Ba9WoWl8ZpEdoUwCl-l-33" target="5Ba9WoWl8ZpEdoUwCl-l-35" edge="1">
                    <mxGeometry relative="1" as="geometry"/>
                </mxCell>
                <mxCell id="5Ba9WoWl8ZpEdoUwCl-l-38" value="" style="edgeStyle=none;rounded=0;orthogonalLoop=1;jettySize=auto;html=1;" parent="1" source="5Ba9WoWl8ZpEdoUwCl-l-33" target="5Ba9WoWl8ZpEdoUwCl-l-37" edge="1">
                    <mxGeometry relative="1" as="geometry"/>
                </mxCell>
                <mxCell id="5Ba9WoWl8ZpEdoUwCl-l-33" value="Εμφάνισε" style="ellipse;shape=umlControl;whiteSpace=wrap;html=1;" parent="1" vertex="1">
                    <mxGeometry x="519.8" y="928.61" width="70" height="80" as="geometry"/>
                </mxCell>
                <mxCell id="5Ba9WoWl8ZpEdoUwCl-l-35" value="In City Transport" style="ellipse;shape=umlEntity;whiteSpace=wrap;html=1;" parent="1" vertex="1">
                    <mxGeometry x="639.8" y="928.61" width="70" height="70" as="geometry"/>
                </mxCell>
                <mxCell id="5Ba9WoWl8ZpEdoUwCl-l-42" value="" style="edgeStyle=none;rounded=0;orthogonalLoop=1;jettySize=auto;html=1;" parent="1" source="5Ba9WoWl8ZpEdoUwCl-l-37" target="5Ba9WoWl8ZpEdoUwCl-l-41" edge="1">
                    <mxGeometry relative="1" as="geometry"/>
                </mxCell>
                <mxCell id="5Ba9WoWl8ZpEdoUwCl-l-37" value="Πληροφορίες Οχήματος" style="shape=umlBoundary;whiteSpace=wrap;html=1;" parent="1" vertex="1">
                    <mxGeometry x="368.8" y="928.61" width="90" height="70" as="geometry"/>
                </mxCell>
                <mxCell id="5Ba9WoWl8ZpEdoUwCl-l-39" style="edgeStyle=none;rounded=0;orthogonalLoop=1;jettySize=auto;html=1;exitX=1;exitY=0.3333333333333333;exitDx=0;exitDy=0;exitPerimeter=0;entryX=0.567;entryY=-0.002;entryDx=0;entryDy=0;entryPerimeter=0;" parent="1" source="Tk8j7c15YgIE_sbvmRS2-1" target="5Ba9WoWl8ZpEdoUwCl-l-37" edge="1">
                    <mxGeometry relative="1" as="geometry"/>
                </mxCell>
                <mxCell id="5Ba9WoWl8ZpEdoUwCl-l-40" value="Επιλογή προσωρινής&lt;div&gt;κράτησης&lt;/div&gt;" style="edgeLabel;html=1;align=center;verticalAlign=middle;resizable=0;points=[];" parent="5Ba9WoWl8ZpEdoUwCl-l-39" vertex="1" connectable="0">
                    <mxGeometry x="0.0654" relative="1" as="geometry">
                        <mxPoint as="offset"/>
                    </mxGeometry>
                </mxCell>
                <mxCell id="5Ba9WoWl8ZpEdoUwCl-l-49" value="" style="edgeStyle=none;rounded=0;orthogonalLoop=1;jettySize=auto;html=1;" parent="1" source="5Ba9WoWl8ZpEdoUwCl-l-41" target="5Ba9WoWl8ZpEdoUwCl-l-48" edge="1">
                    <mxGeometry relative="1" as="geometry"/>
                </mxCell>
                <mxCell id="5Ba9WoWl8ZpEdoUwCl-l-93" style="edgeStyle=none;rounded=0;orthogonalLoop=1;jettySize=auto;html=1;fillColor=#f8cecc;strokeColor=#b85450;strokeWidth=2;" parent="1" source="5Ba9WoWl8ZpEdoUwCl-l-41" target="5Ba9WoWl8ZpEdoUwCl-l-86" edge="1">
                    <mxGeometry relative="1" as="geometry"/>
                </mxCell>
                <mxCell id="5Ba9WoWl8ZpEdoUwCl-l-95" value="ΝΑΙ" style="edgeLabel;html=1;align=center;verticalAlign=middle;resizable=0;points=[];" parent="5Ba9WoWl8ZpEdoUwCl-l-93" vertex="1" connectable="0">
                    <mxGeometry x="-0.2098" y="-3" relative="1" as="geometry">
                        <mxPoint as="offset"/>
                    </mxGeometry>
                </mxCell>
                <mxCell id="5Ba9WoWl8ZpEdoUwCl-l-41" value="Έχει γίνει ήδη κράτηση;" style="ellipse;shape=umlControl;whiteSpace=wrap;html=1;" parent="1" vertex="1">
                    <mxGeometry x="239.8" y="998.61" width="70" height="80" as="geometry"/>
                </mxCell>
                <mxCell id="5Ba9WoWl8ZpEdoUwCl-l-48" value="Βάση Δεδομένων" style="ellipse;shape=umlEntity;whiteSpace=wrap;html=1;" parent="1" vertex="1">
                    <mxGeometry x="159.8" y="898.61" width="70" height="70" as="geometry"/>
                </mxCell>
                <mxCell id="5Ba9WoWl8ZpEdoUwCl-l-53" style="edgeStyle=none;rounded=0;orthogonalLoop=1;jettySize=auto;html=1;entryX=0;entryY=0.5;entryDx=0;entryDy=0;" parent="1" source="5Ba9WoWl8ZpEdoUwCl-l-50" target="5Ba9WoWl8ZpEdoUwCl-l-51" edge="1">
                    <mxGeometry relative="1" as="geometry"/>
                </mxCell>
                <mxCell id="5Ba9WoWl8ZpEdoUwCl-l-50" value="Αποθήκευση κράτησης" style="ellipse;shape=umlControl;whiteSpace=wrap;html=1;" parent="1" vertex="1">
                    <mxGeometry x="329.8" y="1088.6100000000001" width="70" height="80" as="geometry"/>
                </mxCell>
                <mxCell id="5Ba9WoWl8ZpEdoUwCl-l-51" value="Βάση Δεδομένων" style="ellipse;shape=umlEntity;whiteSpace=wrap;html=1;" parent="1" vertex="1">
                    <mxGeometry x="439.8" y="1048.6100000000001" width="70" height="70" as="geometry"/>
                </mxCell>
                <mxCell id="5Ba9WoWl8ZpEdoUwCl-l-57" style="edgeStyle=none;rounded=0;orthogonalLoop=1;jettySize=auto;html=1;entryX=0.09;entryY=0.395;entryDx=0;entryDy=0;entryPerimeter=0;" parent="1" source="5Ba9WoWl8ZpEdoUwCl-l-41" target="5Ba9WoWl8ZpEdoUwCl-l-50" edge="1">
                    <mxGeometry relative="1" as="geometry"/>
                </mxCell>
                <mxCell id="5Ba9WoWl8ZpEdoUwCl-l-87" value="ΟΧΙ" style="edgeLabel;html=1;align=center;verticalAlign=middle;resizable=0;points=[];" parent="5Ba9WoWl8ZpEdoUwCl-l-57" vertex="1" connectable="0">
                    <mxGeometry x="-0.102" relative="1" as="geometry">
                        <mxPoint as="offset"/>
                    </mxGeometry>
                </mxCell>
                <mxCell id="5Ba9WoWl8ZpEdoUwCl-l-64" style="edgeStyle=none;rounded=0;orthogonalLoop=1;jettySize=auto;html=1;entryX=0;entryY=0.5;entryDx=0;entryDy=0;" parent="1" source="5Ba9WoWl8ZpEdoUwCl-l-59" target="5Ba9WoWl8ZpEdoUwCl-l-60" edge="1">
                    <mxGeometry relative="1" as="geometry"/>
                </mxCell>
                <mxCell id="5Ba9WoWl8ZpEdoUwCl-l-59" value="Απαιτεί το επιλεγμένο όχημα δίπλωμα;" style="ellipse;shape=umlControl;whiteSpace=wrap;html=1;" parent="1" vertex="1">
                    <mxGeometry x="490" y="280" width="100" height="80" as="geometry"/>
                </mxCell>
                <mxCell id="5Ba9WoWl8ZpEdoUwCl-l-60" value="In City Transport" style="ellipse;shape=umlEntity;whiteSpace=wrap;html=1;" parent="1" vertex="1">
                    <mxGeometry x="360" y="285" width="70" height="70" as="geometry"/>
                </mxCell>
                <mxCell id="5Ba9WoWl8ZpEdoUwCl-l-62" style="edgeStyle=none;rounded=0;orthogonalLoop=1;jettySize=auto;html=1;entryX=0.029;entryY=0.452;entryDx=0;entryDy=0;entryPerimeter=0;" parent="1" source="5Ba9WoWl8ZpEdoUwCl-l-15" target="5Ba9WoWl8ZpEdoUwCl-l-59" edge="1">
                    <mxGeometry relative="1" as="geometry"/>
                </mxCell>
                <mxCell id="5Ba9WoWl8ZpEdoUwCl-l-63" style="edgeStyle=none;rounded=0;orthogonalLoop=1;jettySize=auto;html=1;" parent="1" source="5Ba9WoWl8ZpEdoUwCl-l-59" target="5Ba9WoWl8ZpEdoUwCl-l-21" edge="1">
                    <mxGeometry relative="1" as="geometry"/>
                </mxCell>
                <mxCell id="5Ba9WoWl8ZpEdoUwCl-l-65" value="ΟΧΙ" style="edgeLabel;html=1;align=center;verticalAlign=middle;resizable=0;points=[];" parent="5Ba9WoWl8ZpEdoUwCl-l-63" vertex="1" connectable="0">
                    <mxGeometry x="0.4003" relative="1" as="geometry">
                        <mxPoint as="offset"/>
                    </mxGeometry>
                </mxCell>
                <mxCell id="5Ba9WoWl8ZpEdoUwCl-l-70" style="edgeStyle=none;rounded=0;orthogonalLoop=1;jettySize=auto;html=1;entryX=0;entryY=0.5;entryDx=0;entryDy=0;fillColor=#f8cecc;strokeColor=#b85450;strokeWidth=2;" parent="1" source="5Ba9WoWl8ZpEdoUwCl-l-59" target="10" edge="1">
                    <mxGeometry relative="1" as="geometry">
                        <mxPoint x="640.0000000000002" y="290" as="targetPoint"/>
                    </mxGeometry>
                </mxCell>
                <mxCell id="5Ba9WoWl8ZpEdoUwCl-l-71" value="Ναι" style="edgeLabel;html=1;align=center;verticalAlign=middle;resizable=0;points=[];" parent="5Ba9WoWl8ZpEdoUwCl-l-70" vertex="1" connectable="0">
                    <mxGeometry x="-0.1697" y="3" relative="1" as="geometry">
                        <mxPoint x="-1" as="offset"/>
                    </mxGeometry>
                </mxCell>
                <mxCell id="5Ba9WoWl8ZpEdoUwCl-l-86" value="Μήνυμα Σφάλματος" style="ellipse;shape=umlControl;whiteSpace=wrap;html=1;" parent="1" vertex="1">
                    <mxGeometry x="239.8" y="798.61" width="70" height="80" as="geometry"/>
                </mxCell>
                <mxCell id="5Ba9WoWl8ZpEdoUwCl-l-94" style="edgeStyle=none;rounded=0;orthogonalLoop=1;jettySize=auto;html=1;entryX=-0.007;entryY=0.534;entryDx=0;entryDy=0;entryPerimeter=0;fillColor=#f8cecc;strokeColor=#b85450;strokeWidth=2;" parent="1" source="5Ba9WoWl8ZpEdoUwCl-l-86" target="5Ba9WoWl8ZpEdoUwCl-l-30" edge="1">
                    <mxGeometry relative="1" as="geometry"/>
                </mxCell>
                <mxCell id="2" value="Wallet" style="ellipse;shape=umlEntity;whiteSpace=wrap;html=1;" parent="1" vertex="1">
                    <mxGeometry x="440" y="-30" width="70" height="70" as="geometry"/>
                </mxCell>
                <mxCell id="6" value="" style="edgeStyle=none;html=1;" edge="1" parent="1" source="4" target="Tk8j7c15YgIE_sbvmRS2-11">
                    <mxGeometry relative="1" as="geometry"/>
                </mxCell>
                <mxCell id="4" value="Μήνυμα ύπαρξης χρέους" style="shape=umlBoundary;whiteSpace=wrap;html=1;" vertex="1" parent="1">
                    <mxGeometry x="680" y="-120" width="90" height="70" as="geometry"/>
                </mxCell>
                <mxCell id="12" value="Αποτυχία" style="edgeStyle=none;html=1;entryX=0.562;entryY=1.033;entryDx=0;entryDy=0;entryPerimeter=0;" edge="1" parent="1" source="10" target="11">
                    <mxGeometry relative="1" as="geometry"/>
                </mxCell>
                <mxCell id="10" value="Έλεγχος Διπλώματος Οδήγησης" style="ellipse;whiteSpace=wrap;html=1;" vertex="1" parent="1">
                    <mxGeometry x="639.8" y="240" width="120" height="60" as="geometry"/>
                </mxCell>
                <mxCell id="11" value="Αρχική οθόνη" style="shape=umlBoundary;whiteSpace=wrap;html=1;" vertex="1" parent="1">
                    <mxGeometry x="600" y="90" width="90" height="70" as="geometry"/>
                </mxCell>
            </root>
        </mxGraphModel>
    </diagram>
</mxfile>